<?xml version="1.0" encoding="UTF-8"?>
<svg width="64px" height="64px" viewBox="0 0 64 64" version="1.1" xmlns="http://www.w3.org/2000/svg" xmlns:xlink="http://www.w3.org/1999/xlink">
    <!-- Generator: sketchtool 51.3 (57544) - http://www.bohemiancoding.com/sketch -->
    <title>9EE339FC-3BC9-478C-9AA8-B24331DE0472</title>
    <desc>Created with sketchtool.</desc>
    <defs>
        <path d="M40,6 L18,6 C16.8954305,6 16,6.8954305 16,8 L16,48 C16,49.1045695 16.8954305,50 18,50 L47,50 C48.1045695,50 49,49.1045695 49,48 L49,14.3284271 C49,13.7979941 48.7892863,13.2892863 48.4142136,12.9142136 L42.0857864,6.58578644 C42.0579136,6.55791364 42.0293029,6.5309485 42,6.50491005 L42,15 L49,15 L49,17 L40,17 L40,6 Z M18,3 L40.6715729,3 C41.9976553,3 43.2694249,3.5267842 44.2071068,4.46446609 L50.5355339,10.7928932 C51.4732158,11.7305751 52,13.0023447 52,14.3284271 L52,48 C52,50.7614237 49.7614237,53 47,53 L18,53 C15.2385763,53 13,50.7614237 13,48 L13,8 C13,5.23857625 15.2385763,3 18,3 Z M20,23 L20,22 L41,22 L41,23 L20,23 Z M20,29 L20,28 L37.0312195,28 L37.0312195,29 L20,29 Z M20,35 L20,34 L43.0227155,34 L43.0227155,35 L20,35 Z M20,41 L20,40 L27.0827625,40 L27.0827625,41 L20,41 Z M34,41 L34,40 L41.0827625,40 L41.0827625,41 L34,41 Z" id="path-1"></path>
    </defs>
    <g id="Symbols" stroke="none" stroke-width="1" fill="none" fill-rule="evenodd">
        <g id="Icon/карточка-доступа">
            <mask id="mask-2" fill="white">
                <use xlink:href="#path-1"></use>
            </mask>
            <use id="Mask" fill="#4A90E2" fill-rule="nonzero" xlink:href="#path-1"></use>
        </g>
    </g>
</svg>