<?xml version="1.0" encoding="UTF-8"?>
<svg width="18px" height="18px" viewBox="0 0 18 18" version="1.1" xmlns="http://www.w3.org/2000/svg" xmlns:xlink="http://www.w3.org/1999/xlink">
    <!-- Generator: sketchtool 51.3 (57544) - http://www.bohemiancoding.com/sketch -->
    <title>52937672-E7F9-4C16-A0D7-AEF3DBE8A059</title>
    <desc>Created with sketchtool.</desc>
    <defs></defs>
    <g id="Symbols" stroke="none" stroke-width="1" fill="none" fill-rule="evenodd">
        <g id="Icon/Allert" fill="#F5A623">
            <g id="Group" transform="translate(1.000000, 1.000000)" fill-rule="nonzero">
                <path d="M8,16 C3.581722,16 0,12.418278 0,8 C0,3.581722 3.581722,0 8,0 C12.418278,0 16,3.581722 16,8 C16,12.418278 12.418278,16 8,16 Z M8,15.0588235 C11.8984806,15.0588235 15.0588235,11.8984806 15.0588235,8 C15.0588235,4.10151941 11.8984806,0.941176471 8,0.941176471 C4.10151941,0.941176471 0.941176471,4.10151941 0.941176471,8 C0.941176471,11.8984806 4.10151941,15.0588235 8,15.0588235 Z" id="Oval"></path>
            </g>
            <path d="M9.01953125,10.2050781 L8.40429688,10.2050781 L8.10546875,4 L9.31835938,4 L9.01953125,10.2050781 Z M8,11.9453125 C8,11.4140598 8.23437266,11.1484375 8.703125,11.1484375 C8.92968863,11.1484375 9.10449157,11.2167962 9.22753906,11.3535156 C9.35058655,11.4902351 9.41210938,11.6874987 9.41210938,11.9453125 C9.41210938,12.1953138 9.34961,12.3896477 9.22460938,12.5283203 C9.09960875,12.6669929 8.92578236,12.7363281 8.703125,12.7363281 C8.49999898,12.7363281 8.33203191,12.6748053 8.19921875,12.5517578 C8.06640559,12.4287103 8,12.2265639 8,11.9453125 Z" id="!"></path>
        </g>
    </g>
</svg>