<svg xmlns="http://www.w3.org/2000/svg" width="12" height="16" viewBox="0 0 12 16">
    <path fill="#F5A623" fill-rule="evenodd" d="M2.258 2.258A1.5 1.5 0 0 1 4.63.888a1.5 1.5 0 0 1 2.74 0 1.5 1.5 0 0 1 2.372 1.37 1.5 1.5 0 0 1 1.37 2.372 1.5 1.5 0 0 1 0 2.74 1.5 1.5 0 0 1-1.37 2.372 1.5 1.5 0 0 1-2.372 1.37 1.5 1.5 0 0 1-2.74 0 1.5 1.5 0 0 1-2.372-1.37A1.5 1.5 0 0 1 .888 7.37a1.5 1.5 0 0 1 0-2.74 1.5 1.5 0 0 1 1.37-2.372zM6 10a4 4 0 1 0 0-8 4 4 0 0 0 0 8zm-3.5 5.724V12h1v2.326l2.5-.854 2.5.854V12h1v3.724L6 14.528l-3.5 1.196z"/>
</svg>
