<?xml version="1.0" encoding="UTF-8"?>
<svg width="92px" height="69px" viewBox="0 0 92 69" version="1.1" xmlns="http://www.w3.org/2000/svg" xmlns:xlink="http://www.w3.org/1999/xlink">
    <!-- Generator: sketchtool 52.2 (67145) - http://www.bohemiancoding.com/sketch -->
    <title>C86A97C8-ADCC-47F9-AC3E-BEB53FDFE770</title>
    <desc>Created with sketchtool.</desc>
    <g id="Design-1024" stroke="none" stroke-width="1" fill="none" fill-rule="evenodd">
        <g id="SelectDevice" transform="translate(-257.000000, -484.000000)">
            <g id="Group-4" transform="translate(257.000000, 484.000000)">
                <path d="M63.5,56.5 L65,58" id="Line" stroke="#979797" stroke-linecap="square"></path>
                <g id="Group">
                    <path d="M6,0 L86,0 C88.209139,-4.05812251e-16 90,1.790861 90,4 L90,61 C90,63.209139 88.209139,65 86,65 L6,65 C3.790861,65 2,63.209139 2,61 L2,4 C2,1.790861 3.790861,4.05812251e-16 6,0 Z M8,3 C6.8954305,3 6,3.8954305 6,5 L6,59 C6,60.1045695 6.8954305,61 8,61 L84,61 C85.1045695,61 86,60.1045695 86,59 L86,5 C86,3.8954305 85.1045695,3 84,3 L8,3 Z" id="Combined-Shape" fill="#4A90E2"></path>
                    <circle id="Oval" fill="#17CC65" cx="73" cy="7" r="1"></circle>
                    <circle id="Oval-Copy-3" fill="#4A90E2" cx="10" cy="58" r="1"></circle>
                    <circle id="Oval-Copy" fill="#F5A623" cx="77" cy="7" r="1"></circle>
                    <circle id="Oval-Copy-2" fill="#F08161" cx="81" cy="7" r="1"></circle>
                    <path d="M1.5,66 L90.5,66 C91.3284271,66 92,66.6715729 92,67.5 L92,67.5 C92,68.3284271 91.3284271,69 90.5,69 L1.5,69 C0.671572875,69 1.01453063e-16,68.3284271 0,67.5 L0,67.5 C-1.01453063e-16,66.6715729 0.671572875,66 1.5,66 Z" id="Rectangle-3" fill="#4A90E2"></path>
                    <polygon id="Line-Copy" fill="#4A90E2" fill-rule="nonzero" points="14 25 14 23 36 23 36 25"></polygon>
                    <polygon id="Line-Copy-2" fill="#4A90E2" fill-rule="nonzero" points="14 31 14 29 32 29 32 31"></polygon>
                    <polygon id="Line-Copy-3" fill="#4A90E2" fill-rule="nonzero" points="14 37 14 35 38 35 38 37"></polygon>
                    <polygon id="Line-Copy-4" fill="#4A90E2" fill-rule="nonzero" points="14 43 14 41 22 41 22 43"></polygon>
                    <polygon id="Line-Copy-5" fill="#4A90E2" fill-rule="nonzero" points="28 43 28 41 36 41 36 43"></polygon>
                </g>
                <path d="M4.49404962,11.5 L88.5253124,11.5" id="Line-3" stroke="#4A90E2" stroke-linecap="square"></path>
            </g>
        </g>
    </g>
</svg>