<?xml version="1.0" encoding="UTF-8"?>
<svg width="86px" height="69px" viewBox="0 0 86 69" version="1.1" xmlns="http://www.w3.org/2000/svg" xmlns:xlink="http://www.w3.org/1999/xlink">
    <!-- Generator: sketchtool 52.2 (67145) - http://www.bohemiancoding.com/sketch -->
    <title>39DB78AE-E166-4FE4-8397-DBF5724CB1DE</title>
    <desc>Created with sketchtool.</desc>
    <g id="Design-1024" stroke="none" stroke-width="1" fill="none" fill-rule="evenodd">
        <g id="SelectDevice" transform="translate(-1096.000000, -487.000000)">
            <g id="Group-5" transform="translate(1096.000000, 487.000000)">
                <g id="Group-3" transform="translate(40.000000, 36.000000) rotate(90.000000) translate(-40.000000, -36.000000) translate(20.000000, 16.000000)" stroke="#4A90E2" stroke-width="3">
                    <circle id="Oval-2" cx="12.0588235" cy="27.9411765" r="12.0588235"></circle>
                    <circle id="Oval-2-Copy" cx="10" cy="30" r="2.35294118"></circle>
                    <polyline id="Path-4" points="16.4705882 16.7647059 32.9411765 0.294117647 39.517847 0.294117647 39.517847 7.39549679 37.2790193 9.63432446 33.7611027 9.63432446 33.7611027 12.3762218 30.4739926 12.3762218 30.4739926 15.9060538 27.5195319 15.9060538 27.5195319 19.4140835 23.3580998 23.5755156"></polyline>
                </g>
                <rect id="Rectangle-7" stroke="#4A90E2" stroke-width="3" x="1.5" y="1.5" width="77" height="60" rx="3"></rect>
                <path d="M81.5,4.5 C83.1568542,4.5 84.5,5.84314575 84.5,7.5 L84.5,64.5 C84.5,66.1568542 83.1568542,67.5 81.5,67.5 L7.5,67.5 C5.84314575,67.5 4.5,66.1568542 4.5,64.5" id="Rectangle-7-Copy" stroke="#4A90E2" stroke-width="3"></path>
                <circle id="Oval" fill="#17CC65" cx="65" cy="7" r="1"></circle>
                <circle id="Oval-Copy" fill="#F5A623" cx="69" cy="7" r="1"></circle>
                <circle id="Oval-Copy-2" fill="#F08161" cx="73" cy="7" r="1"></circle>
                <path d="M3.5,10.5 L76.6710325,10.5" id="Line-3" stroke="#4A90E2" stroke-linecap="square"></path>
            </g>
        </g>
    </g>
</svg>