<?xml version="1.0" encoding="UTF-8"?>
<svg width="86px" height="86px" viewBox="0 0 86 86" version="1.1" xmlns="http://www.w3.org/2000/svg" xmlns:xlink="http://www.w3.org/1999/xlink">
    <!-- Generator: sketchtool 52.2 (67145) - http://www.bohemiancoding.com/sketch -->
    <title>0AD2C0DA-A7C1-456F-890D-1F806F2C1502</title>
    <desc>Created with sketchtool.</desc>
    <g id="Symbols" stroke="none" stroke-width="1" fill="none" fill-rule="evenodd">
        <g id="allert">
            <path d="M16,16 L16,70 L70,70 L70,16 L16,16 Z" id="Rectangle-10" stroke="#F5A623" stroke-width="6" transform="translate(43.000000, 43.000000) rotate(45.000000) translate(-43.000000, -43.000000) "></path>
            <path d="M44.8203125,49.703125 L43.1796875,49.703125 L42.3828125,33.15625 L45.6171875,33.15625 L44.8203125,49.703125 Z M42.1015625,54.34375 C42.1015625,52.9270762 42.7265563,52.21875 43.9765625,52.21875 C44.5807322,52.21875 45.0468734,52.4010398 45.375,52.765625 C45.7031266,53.1302102 45.8671875,53.6562466 45.8671875,54.34375 C45.8671875,55.01042 45.7005225,55.528644 45.3671875,55.8984375 C45.0338525,56.268231 44.5703155,56.453125 43.9765625,56.453125 C43.4348931,56.453125 42.9869809,56.2890641 42.6328125,55.9609375 C42.2786441,55.6328109 42.1015625,55.0937537 42.1015625,54.34375 Z" id="!" fill="#2B2E35"></path>
        </g>
    </g>
</svg>