<?xml version="1.0" encoding="UTF-8"?>
<svg width="64px" height="64px" viewBox="0 0 64 64" version="1.1" xmlns="http://www.w3.org/2000/svg" xmlns:xlink="http://www.w3.org/1999/xlink">
    <!-- Generator: sketchtool 51.3 (57544) - http://www.bohemiancoding.com/sketch -->
    <title>B26F42AC-B9DC-4FAF-90AC-C97C8B513613</title>
    <desc>Created with sketchtool.</desc>
    <defs>
        <path d="M52.5964393,50.0103688 L55.9502881,59.2249928 L50.2576592,58.5841959 L45.3625188,62.2971841 L43,55.8062169 L40.3863307,62.9872143 L36.4374202,58.8371841 L30.3008623,58.5349625 L32.6793942,52 L18,52 C15.2385763,52 13,49.7614237 13,47 L13,7 C13,4.23857625 15.2385763,2 18,2 L40.6715729,2 C41.9976553,2 43.2694249,2.5267842 44.2071068,3.46446609 L50.5355339,9.79289322 C51.4732158,10.7305751 52,12.0023447 52,13.3284271 L52,33.3253052 C54.1671575,35.5732165 55.5,38.6309572 55.5,42 C55.5,45.047966 54.4090973,47.8411381 52.5964393,50.0103688 Z M50.2063029,52.2149363 C48.8509263,53.1728583 47.296479,53.8678246 45.6172252,54.2255709 L46.790378,57.4487816 L49.400763,55.4687916 L51.4756177,55.7023499 L50.2063029,52.2149363 Z M35.793697,52.2149366 L34.5111589,55.7386809 L37.7835429,55.8998438 L39.2228454,57.4124506 L40.3827748,54.2255709 C38.703521,53.8678246 37.1490737,53.1728583 35.7936971,52.2149363 Z M32.6423324,49 C31.2899307,47.0028046 30.5,44.5936514 30.5,42 C30.5,35.0964406 36.0964406,29.5 43,29.5 C45.1743361,29.5 47.2190074,30.0551612 49,31.0314699 L49,13.3284271 L49,14 L40,14 L40,5 L18,5 C16.8954305,5 16,5.8954305 16,7 L16,47 C16,48.1045695 16.8954305,49 18,49 L32.6423324,49 Z M42,5.50491005 L42,12 L48.4950899,12 C48.4690515,11.9706971 48.4420864,11.9420864 48.4142136,11.9142136 L42.0857864,5.58578644 C42.0579136,5.55791364 42.0293029,5.5309485 42,5.50491005 Z M20,18 L20,17 L37.0312195,17 L37.0312195,18 L20,18 Z M20,24 L20,23 L43.0227155,23 L43.0227155,24 L20,24 Z M20,30 L20,29 L27.0827625,29 L27.0827625,30 L20,30 Z M43,51.5 C48.2467051,51.5 52.5,47.2467051 52.5,42 C52.5,36.7532949 48.2467051,32.5 43,32.5 C37.7532949,32.5 33.5,36.7532949 33.5,42 C33.5,47.2467051 37.7532949,51.5 43,51.5 Z M43,46.5 C40.5147186,46.5 38.5,44.4852814 38.5,42 C38.5,39.5147186 40.5147186,37.5 43,37.5 C45.4852814,37.5 47.5,39.5147186 47.5,42 C47.5,44.4852814 45.4852814,46.5 43,46.5 Z M43,43.5 C43.8284271,43.5 44.5,42.8284271 44.5,42 C44.5,41.1715729 43.8284271,40.5 43,40.5 C42.1715729,40.5 41.5,41.1715729 41.5,42 C41.5,42.8284271 42.1715729,43.5 43,43.5 Z" id="path-1"></path>
    </defs>
    <g id="Symbols" stroke="none" stroke-width="1" fill="none" fill-rule="evenodd">
        <g id="Icon/сертификат">
            <mask id="mask-2" fill="white">
                <use xlink:href="#path-1"></use>
            </mask>
            <use id="Mask" fill="#4A90E2" fill-rule="nonzero" xlink:href="#path-1"></use>
            <g id="Color/LightBlue" mask="url(#mask-2)" fill="#4A90E2">
                <rect id="Rectangle" x="0" y="0" width="64" height="64"></rect>
            </g>
        </g>
    </g>
</svg>