<?xml version="1.0" encoding="UTF-8"?>
<svg width="18px" height="18px" viewBox="0 0 18 18" version="1.1" xmlns="http://www.w3.org/2000/svg" xmlns:xlink="http://www.w3.org/1999/xlink">
    <!-- Generator: sketchtool 51.3 (57544) - http://www.bohemiancoding.com/sketch -->
    <title>E8A17A8E-E120-44EF-95BE-EB822BF7C893</title>
    <desc>Created with sketchtool.</desc>
    <defs></defs>
    <g id="Symbols" stroke="none" stroke-width="1" fill="none" fill-rule="evenodd">
        <g id="Icon/Help" fill="#0069B3">
            <g id="Group" transform="translate(1.000000, 1.000000)">
                <path d="M7.69165039,9.83544922 L7.69165039,9.54541016 C7.69165039,9.12646275 7.75610287,8.78182101 7.88500977,8.51147461 C8.01391666,8.24112821 8.25382312,7.95556791 8.60473633,7.65478516 C9.09171793,7.24299924 9.39876239,6.93326927 9.52587891,6.72558594 C9.65299543,6.51790261 9.71655273,6.26725407 9.71655273,5.97363281 C9.71655273,5.60839661 9.59928503,5.32641701 9.36474609,5.12768555 C9.13020716,4.92895408 8.79272681,4.82958984 8.35229492,4.82958984 C8.0694159,4.82958984 7.79370251,4.86271126 7.52514648,4.92895508 C7.25659045,4.9951989 6.94865083,5.1160473 6.60131836,5.29150391 L6.28442383,4.56640625 C6.96118502,4.21191229 7.66837196,4.03466797 8.40600586,4.03466797 C9.08992855,4.03466797 9.62166151,4.20296056 10.0012207,4.53955078 C10.3807799,4.87614101 10.5705566,5.35058288 10.5705566,5.96289062 C10.5705566,6.22428516 10.5356449,6.45434471 10.4658203,6.65307617 C10.3959957,6.85180763 10.2930508,7.03979404 10.1569824,7.21704102 C10.020914,7.394288 9.72729718,7.67984829 9.27612305,8.07373047 C8.91446759,8.38167472 8.67545631,8.63769429 8.55908203,8.84179688 C8.44270775,9.04589946 8.38452148,9.31803215 8.38452148,9.65820312 L8.38452148,9.83544922 L7.69165039,9.83544922 Z M7.4284668,11.4306641 C7.4284668,10.9436825 7.6433084,10.7001953 8.07299805,10.7001953 C8.28068138,10.7001953 8.4409174,10.7628574 8.55371094,10.8881836 C8.66650447,11.0135097 8.72290039,11.1943348 8.72290039,11.4306641 C8.72290039,11.6598319 8.6656093,11.8379714 8.55102539,11.9650879 C8.43644148,12.0922044 8.27710063,12.1557617 8.07299805,12.1557617 C7.8867992,12.1557617 7.73282938,12.0993658 7.61108398,11.9865723 C7.48933858,11.8737787 7.4284668,11.6884779 7.4284668,11.4306641 Z" id="?"></path>
                <path d="M8,16 C3.581722,16 0,12.418278 0,8 C0,3.581722 3.581722,0 8,0 C12.418278,0 16,3.581722 16,8 C16,12.418278 12.418278,16 8,16 Z M8,15.0588235 C11.8984806,15.0588235 15.0588235,11.8984806 15.0588235,8 C15.0588235,4.10151941 11.8984806,0.941176471 8,0.941176471 C4.10151941,0.941176471 0.941176471,4.10151941 0.941176471,8 C0.941176471,11.8984806 4.10151941,15.0588235 8,15.0588235 Z" id="Oval" fill-rule="nonzero"></path>
            </g>
        </g>
    </g>
</svg>