<?xml version="1.0" encoding="UTF-8"?>
<svg width="64px" height="64px" viewBox="0 0 64 64" version="1.1" xmlns="http://www.w3.org/2000/svg" xmlns:xlink="http://www.w3.org/1999/xlink">
    <!-- Generator: sketchtool 52.2 (67145) - http://www.bohemiancoding.com/sketch -->
    <title>C4A70FE2-4663-4F9F-90D6-A77E45EBF93E</title>
    <desc>Created with sketchtool.</desc>
    <g id="Symbols" stroke="none" stroke-width="1" fill="none" fill-rule="evenodd">
        <g id="Icon/Заявление" fill="#4A90E2" fill-rule="nonzero">
            <path d="M39.5,6 L18.5,6 C17.6715729,6 17,6.67157288 17,7.5 L17,45.5 C17,46.3284271 17.6715729,47 18.5,47 L46.5,47 C47.3284271,47 48,46.3284271 48,45.5 L48,8 C48,6.8954305 47.1045695,6 46,6 L39.5,6 Z M39.6486245,6.43681145 C39.6017203,6.3901306 39.55205,6.34686618 39.5,6.30717775 L39.6486245,6.43681145 Z M12,5 C11.4477153,5 11,5.44771525 11,6 L11,53 C11,53.5522847 11.4477153,54 12,54 L53,54 C53.5522847,54 54,53.5522847 54,53 L54,6 C54,5.44771525 53.5522847,5 53,5 L50,5 C50.6666667,5.86853584 51,6.70186918 51,7.5 L51,45.5 C51,47.9852814 48.9852814,50 46.5,50 L18.5,50 C16.0147186,50 14,47.9852814 14,45.5 L14,7.5 C14,6.57492668 14.2791358,5.71504902 14.7577745,5 L12,5 Z M28,3 C28,1.34314575 29.3431458,-1.47199765e-15 31,-1.77635684e-15 L35,-1.77635684e-15 C36.6568542,-2.08071603e-15 38,1.34314575 38,3 L53,3 C54.6568542,3 56,4.34314575 56,6 L56,53 C56,54.6568542 54.6568542,56 53,56 L12,56 C10.3431458,56 9,54.6568542 9,53 L9,6 C9,4.34314575 10.3431458,3 12,3 L28,3 Z M20,23 L20,22 L41,22 L41,23 L20,23 Z M20,29 L20,28 L37.0312195,28 L37.0312195,29 L20,29 Z M20,35 L20,34 L43.0227155,34 L43.0227155,35 L20,35 Z M20,41 L20,40 L27.0827625,40 L27.0827625,41 L20,41 Z M34,41 L34,40 L41.0827625,40 L41.0827625,41 L34,41 Z M27,3 L39,3 C40.6568542,3 42,3.34314575 42,5 L42,7 C42,8.65685425 40.6568542,10 39,10 L27,10 C25.3431458,10 24,8.65685425 24,7 L24,5 C24,3.34314575 25.3431458,3 27,3 Z M27,4 C26.4477153,4 26,4.44771525 26,5 L26,7 C26,7.55228475 26.4477153,8 27,8 L39,8 C39.5522847,8 40,7.55228475 40,7 L40,5 C40,4.44771525 39.5522847,4 39,4 L27,4 Z" id="Combined-Shape"></path>
        </g>
    </g>
</svg>