<?xml version="1.0" encoding="UTF-8"?>
<svg width="18px" height="18px" viewBox="0 0 18 18" version="1.1" xmlns="http://www.w3.org/2000/svg" xmlns:xlink="http://www.w3.org/1999/xlink">
    <!-- Generator: sketchtool 52.2 (67145) - http://www.bohemiancoding.com/sketch -->
    <title>ECD21CA3-8343-4714-BDD8-5F74F40F2253</title>
    <desc>Created with sketchtool.</desc>
    <defs>
        <path d="M6,5 L6,13 L13,13 L13,5 L6,5 Z M6,4 L6,3 C6,2.44771525 6.44771525,2 7,2 L12,2 C12.5522847,2 13,2.44771525 13,3 L13,4 L15,4 L15,5 L14,5 L14,14 L5,14 L5,5 L4,5 L4,4 L6,4 Z M7,6 L7,12.0990195 L8,12.0990195 L8,6 L7,6 Z M9,6 L9,12.0990195 L10,12.0990195 L10,6 L9,6 Z M11,6 L11,12.0990195 L12,12.0990195 L12,6 L11,6 Z M7,3 L7,4 L12,4 L12,3 L7,3 Z" id="path-1"></path>
    </defs>
    <g id="Symbols" stroke="none" stroke-width="1" fill="none" fill-rule="evenodd">
        <g id="Icon/Bag">
            <mask id="mask-2" fill="white">
                <use xlink:href="#path-1"></use>
            </mask>
            <use id="Mask" fill="#4A90E2" fill-rule="nonzero" xlink:href="#path-1"></use>
            <g id="Color/Blue" mask="url(#mask-2)" fill="#0069B3">
                <g transform="translate(2.000000, 1.000000)" id="Rectangle">
                    <rect x="0" y="0" width="14" height="16" rx="5"></rect>
                </g>
            </g>
        </g>
    </g>
</svg>