<?xml version="1.0" encoding="UTF-8"?>
<svg width="18px" height="18px" viewBox="0 0 18 18" version="1.1" xmlns="http://www.w3.org/2000/svg" xmlns:xlink="http://www.w3.org/1999/xlink">
    <!-- Generator: sketchtool 51.3 (57544) - http://www.bohemiancoding.com/sketch -->
    <title>23F71CA6-F632-4ADF-8724-3B17CEEAB5AC</title>
    <desc>Created with sketchtool.</desc>
    <defs>
        <path d="M5,7 L3,7 L3,13 L5,13 L5,11 L13,11 L13,13 L15,13 L15,7 L13,7 L5,7 Z M5,6 L5,1 L13,1 L13,6 L16,6 L16,14 L13,14 L13,17 L5,17 L5,14 L2,14 L2,6 L5,6 Z M4,9 L4,8 L7,8 L7,9 L4,9 Z M12,9 L12,8 L14,8 L14,9 L12,9 Z M6,12 L6,16 L12,16 L12,12 L6,12 Z M6,2 L6,6 L12,6 L12,2 L6,2 Z" id="path-1"></path>
    </defs>
    <g id="Symbols" stroke="none" stroke-width="1" fill="none" fill-rule="evenodd">
        <g id="Icon/Print">
            <mask id="mask-2" fill="white">
                <use xlink:href="#path-1"></use>
            </mask>
            <use id="Mask" fill="#1881D3" fill-rule="nonzero" xlink:href="#path-1"></use>
            <g id="Color/Blue" mask="url(#mask-2)" fill="#0069B3">
                <g transform="translate(2.000000, 1.000000)" id="Rectangle">
                    <rect x="0" y="0" width="14" height="16" rx="5"></rect>
                </g>
            </g>
        </g>
    </g>
</svg>