<?xml version="1.0" encoding="UTF-8"?>
<svg width="56px" height="56px" viewBox="0 0 56 56" version="1.1" xmlns="http://www.w3.org/2000/svg" xmlns:xlink="http://www.w3.org/1999/xlink">
    <!-- Generator: sketchtool 51.3 (57544) - http://www.bohemiancoding.com/sketch -->
    <title>1A8092B6-A4E9-454D-9990-8414E89CFC09</title>
    <desc>Created with sketchtool.</desc>
    <defs></defs>
    <g id="Design-1440" stroke="none" stroke-width="1" fill="none" fill-rule="evenodd">
        <g id="Select" transform="translate(-693.000000, -302.000000)">
            <g id="Group-2" transform="translate(510.000000, 302.000000)">
                <g id="Icon/MVS" transform="translate(183.000000, 0.000000)">
                    <g id="Page-1">
                        <path d="M53.667,28.083 C53.667,42.083 42.078,53.697 27.834,53.697 C20.76,53.697 14.098,50.651 9.239,45.571 L10.704,44.696 L2.655,36.876 L5.714,47.675 L7.439,46.645 C12.703,52.334 20.038,55.666 27.834,55.666 C43.181,55.666 55.667,43.083 55.667,28.083 L53.667,28.083 Z" id="Fill-1" fill="#FF8600"></path>
                        <path d="M52.1973,16.3281 L48.2923,5.8061 L46.5023,7.0761 C41.3803,2.4421 34.8263,0.0001 27.8333,0.0001 C12.4863,0.0001 0.0003,12.0831 0.0003,28.0831 L2.0003,28.0831 C2.0003,13.0831 13.5893,2.0311 27.8333,2.0311 C34.1903,2.0311 40.1563,4.1241 44.8673,8.2371 L43.5543,9.1691 L52.1973,16.3281 Z" id="Fill-3" fill="#FF8600"></path>
                        <path d="M28.4448,20.083 C26.5148,20.083 24.9448,21.653 24.9448,23.583 C24.9448,25.513 26.5148,27.083 28.4448,27.083 C30.3748,27.083 31.9448,25.513 31.9448,23.583 C31.9448,21.653 30.3748,20.083 28.4448,20.083 M28.4448,29.083 C25.4118,29.083 22.9448,26.615 22.9448,23.583 C22.9448,20.551 25.4118,18.083 28.4448,18.083 C31.4778,18.083 33.9448,20.551 33.9448,23.583 C33.9448,26.615 31.4778,29.083 28.4448,29.083" id="Fill-5" fill="#0F6DB6"></path>
                        <path d="M28.4448,13.083 C22.7468,13.083 18.1118,17.719 18.1118,23.416 C18.1118,29.114 22.7468,33.75 28.4448,33.75 C34.1428,33.75 38.7778,29.114 38.7778,23.416 C38.7778,17.719 34.1428,13.083 28.4448,13.083 M28.4448,35.75 C21.6438,35.75 16.1118,30.217 16.1118,23.416 C16.1118,16.615 21.6438,11.083 28.4448,11.083 C35.2448,11.083 40.7778,16.615 40.7778,23.416 C40.7778,30.217 35.2448,35.75 28.4448,35.75" id="Fill-7" fill="#0F6DB6"></path>
                        <polygon id="Fill-9" fill="#0F6DB6" points="24.7813 44.0674 21.3433 40.4054 15.5183 41.3494 19.6513 30.7204 21.5153 31.4454 18.6493 38.8164 22.0733 38.2604 24.3853 40.7234 28.2083 34.0234 32.1483 40.7424 34.4703 38.2944 37.8963 38.8384 35.0263 31.4534 36.8903 30.7284 41.0213 41.3594 35.1973 40.4344 31.7683 44.0484 28.2323 38.0174"></polygon>
                    </g>
                </g>
            </g>
        </g>
    </g>
</svg>