<?xml version="1.0" encoding="UTF-8"?>
<svg width="72px" height="29px" viewBox="0 0 72 29" version="1.1" xmlns="http://www.w3.org/2000/svg" xmlns:xlink="http://www.w3.org/1999/xlink">
    <!-- Generator: sketchtool 51.3 (57544) - http://www.bohemiancoding.com/sketch -->
    <title>914493EA-A995-4AE3-B632-0D9C034776CD</title>
    <desc>Created with sketchtool.</desc>
    <defs></defs>
    <g id="Symbols" stroke="none" stroke-width="1" fill="none" fill-rule="evenodd">
        <g id="Logotype&amp;Title" transform="translate(0.000000, -4.000000)">
            <g id="Group">
                <g id="Logotype" transform="translate(0.000000, 4.000000)">
                    <g>
                        <path d="M62.0658,0.0017 L57.3388,4.1807 L52.5958,0.0017 L43.0778,0.0017 L51.7538,7.0267 L46.2218,11.4047 L38.9438,0.0017 L27.1508,0.0017 L18.2488,14.2117 L28.0538,14.2117 L29.3118,11.3487 L36.8248,11.3487 L38.3238,14.2117 L52.1988,14.2117 L57.3388,9.8727 L61.6208,14.2117 L71.9998,14.2117 L62.9278,7.0267 L71.6018,0.0017 L62.0658,0.0017 Z M32.9128,2.5557 L35.5368,8.8117 L30.2848,8.8117 L32.9128,2.5557 Z M-0.0002,0.0017 L-0.0002,2.6867 L7.7658,2.6867 L7.7658,14.2117 L16.8418,14.2117 L16.8418,2.6867 L24.0858,2.6867 L24.0858,0.0017 L-0.0002,0.0017 Z" id="Fill-1" fill="#1D1D1B"></path>
                        <g id="Group-5" transform="translate(0.000000, 15.951100)" fill="#0069B3">
                            <path d="M0.004,13 L71.994,13 L71.994,0.354 L0.004,0.354 L0.004,13 Z M22.795,5.085 L15.979,5.085 L15.979,4.228 C15.979,3.743 14.556,3.501 13.5,3.501 C12.35,3.501 11.18,3.711 11.18,4.195 L11.18,8.869 C11.18,9.575 12.077,9.852 13.5,9.852 C14.957,9.852 15.979,9.594 15.979,8.901 L15.979,7.653 L22.795,7.653 L22.795,8.527 C22.795,10.661 19.868,11.58 13.581,11.58 C7.31,11.58 4.368,10.661 4.368,8.508 L4.368,4.423 C4.368,2.953 7.12,1.772 13.581,1.772 C19.948,1.772 22.795,2.984 22.795,4.44 L22.795,5.085 Z M41.671,8.625 C41.671,10.498 38.872,11.58 32.521,11.58 C26.215,11.58 23.339,10.498 23.339,8.625 L23.339,4.423 C23.339,2.953 26.121,1.791 32.521,1.772 L32.552,1.772 C38.952,1.772 41.671,2.968 41.671,4.423 L41.671,8.625 Z M67.63,11.353 L61.139,11.353 L61.139,8.077 C61.139,7.169 61.133,8.985 61.158,4.65 L57.25,11.353 L52.516,11.353 L48.644,4.65 L48.628,8.058 L48.628,11.353 L42.133,11.353 L42.133,1.982 L51.621,1.982 L53.828,5.779 C54.292,6.554 54.876,7.581 54.918,7.59 C54.958,7.602 55.555,6.459 55.956,5.779 L58.148,1.982 L67.63,1.982 L67.63,11.353 Z" id="Fill-2"></path>
                            <path d="M32.521,3.5021 C31.334,3.5021 30.153,3.7441 30.153,4.2761 L30.153,9.0261 C30.153,9.5761 31.334,9.8511 32.521,9.8511 C33.654,9.8511 34.872,9.5761 34.872,9.0261 L34.872,4.2761 C34.872,3.7441 33.654,3.5021 32.521,3.5021" id="Fill-4"></path>
                        </g>
                    </g>
                </g>
            </g>
        </g>
    </g>
</svg>